<mxfile host="app.diagrams.net" agent="Mozilla/5.0 (Windows NT 10.0; Win64; x64) AppleWebKit/537.36 (KHTML, like Gecko) Chrome/131.0.0.0 Safari/537.36 Edg/131.0.0.0" version="25.0.1">
  <diagram name="Page-1" id="13e1069c-82ec-6db2-03f1-153e76fe0fe0">
    <mxGraphModel dx="2281" dy="633" grid="1" gridSize="10" guides="1" tooltips="1" connect="1" arrows="1" fold="1" page="1" pageScale="1" pageWidth="1100" pageHeight="850" background="none" math="0" shadow="0">
      <root>
        <mxCell id="0" />
        <mxCell id="1" parent="0" />
        <mxCell id="7baba1c4bc27f4b0-8" value="Effector(s)" style="shape=umlLifeline;perimeter=lifelinePerimeter;whiteSpace=wrap;html=1;container=1;collapsible=0;recursiveResize=0;outlineConnect=0;rounded=1;shadow=0;comic=0;labelBackgroundColor=none;strokeWidth=1;fontFamily=Verdana;fontSize=12;align=center;" parent="1" vertex="1">
          <mxGeometry x="-40" y="80" width="100" height="580" as="geometry" />
        </mxCell>
        <mxCell id="7baba1c4bc27f4b0-5" value="Reservior Connectom(s)" style="shape=umlLifeline;perimeter=lifelinePerimeter;whiteSpace=wrap;html=1;container=1;collapsible=0;recursiveResize=0;outlineConnect=0;rounded=1;shadow=0;comic=0;labelBackgroundColor=none;strokeWidth=1;fontFamily=Verdana;fontSize=12;align=center;" parent="1" vertex="1">
          <mxGeometry x="760" y="80" width="100" height="580" as="geometry" />
        </mxCell>
        <mxCell id="7baba1c4bc27f4b0-19" value="" style="html=1;points=[];perimeter=orthogonalPerimeter;rounded=0;shadow=0;comic=0;labelBackgroundColor=none;strokeWidth=1;fontFamily=Verdana;fontSize=12;align=center;" parent="7baba1c4bc27f4b0-5" vertex="1">
          <mxGeometry x="45" y="160.46" width="10" height="40" as="geometry" />
        </mxCell>
        <mxCell id="j16Ln0b1P9S7bvE0FEQn-11" value="Token" style="html=1;verticalAlign=bottom;endArrow=block;labelBackgroundColor=none;fontFamily=Verdana;fontSize=12;elbow=vertical;entryX=-0.043;entryY=0.23;entryDx=0;entryDy=0;entryPerimeter=0;exitX=1.044;exitY=0.053;exitDx=0;exitDy=0;exitPerimeter=0;" parent="7baba1c4bc27f4b0-5" edge="1">
          <mxGeometry relative="1" as="geometry">
            <mxPoint x="-84.55999999999995" y="159.99999999999997" as="sourcePoint" />
            <mxPoint x="44.570000000000164" y="160.45999999999995" as="targetPoint" />
          </mxGeometry>
        </mxCell>
        <mxCell id="j16Ln0b1P9S7bvE0FEQn-12" value="Sub-Route" style="edgeLabel;html=1;align=center;verticalAlign=middle;resizable=0;points=[];" parent="j16Ln0b1P9S7bvE0FEQn-11" vertex="1" connectable="0">
          <mxGeometry x="-0.1219" relative="1" as="geometry">
            <mxPoint x="8" y="10" as="offset" />
          </mxGeometry>
        </mxCell>
        <mxCell id="7baba1c4bc27f4b0-4" value="Readout Connectom(s)" style="shape=umlLifeline;perimeter=lifelinePerimeter;whiteSpace=wrap;html=1;container=1;collapsible=0;recursiveResize=0;outlineConnect=0;rounded=1;shadow=0;comic=0;labelBackgroundColor=none;strokeWidth=1;fontFamily=Verdana;fontSize=12;align=center;" parent="7baba1c4bc27f4b0-5" vertex="1">
          <mxGeometry x="-140" width="100" height="580" as="geometry" />
        </mxCell>
        <mxCell id="j16Ln0b1P9S7bvE0FEQn-35" value="Token" style="html=1;verticalAlign=bottom;endArrow=open;dashed=1;endSize=8;labelBackgroundColor=none;fontFamily=Verdana;fontSize=12;exitX=-0.103;exitY=0.985;exitDx=0;exitDy=0;exitPerimeter=0;entryX=0.867;entryY=0.508;entryDx=0;entryDy=0;entryPerimeter=0;" parent="7baba1c4bc27f4b0-4" target="PnK5xe3oLc7WuXJ-SS2v-2" edge="1">
          <mxGeometry x="-0.6336" relative="1" as="geometry">
            <mxPoint x="-490" y="330" as="targetPoint" />
            <mxPoint x="43.97000000000003" y="330.0000000000001" as="sourcePoint" />
            <mxPoint as="offset" />
          </mxGeometry>
        </mxCell>
        <mxCell id="j16Ln0b1P9S7bvE0FEQn-36" value="Data Tensor" style="edgeLabel;html=1;align=center;verticalAlign=middle;resizable=0;points=[];" parent="j16Ln0b1P9S7bvE0FEQn-35" vertex="1" connectable="0">
          <mxGeometry x="0.1379" y="2" relative="1" as="geometry">
            <mxPoint x="69" y="-52" as="offset" />
          </mxGeometry>
        </mxCell>
        <mxCell id="PnK5xe3oLc7WuXJ-SS2v-6" value="Computing Graph" style="edgeLabel;html=1;align=center;verticalAlign=middle;resizable=0;points=[];" vertex="1" connectable="0" parent="j16Ln0b1P9S7bvE0FEQn-35">
          <mxGeometry x="-0.6029" relative="1" as="geometry">
            <mxPoint x="6" y="10" as="offset" />
          </mxGeometry>
        </mxCell>
        <mxCell id="j16Ln0b1P9S7bvE0FEQn-29" value="" style="html=1;points=[];perimeter=orthogonalPerimeter;rounded=0;shadow=0;comic=0;labelBackgroundColor=none;strokeWidth=1;fontFamily=Verdana;fontSize=12;align=center;" parent="7baba1c4bc27f4b0-4" vertex="1">
          <mxGeometry x="45" y="310" width="10" height="90" as="geometry" />
        </mxCell>
        <mxCell id="j16Ln0b1P9S7bvE0FEQn-30" value="Token" style="html=1;verticalAlign=bottom;endArrow=open;dashed=1;endSize=8;labelBackgroundColor=none;fontFamily=Verdana;fontSize=12;exitX=0.005;exitY=1.001;exitDx=0;exitDy=0;exitPerimeter=0;entryX=1.017;entryY=0.022;entryDx=0;entryDy=0;entryPerimeter=0;" parent="7baba1c4bc27f4b0-4" target="j16Ln0b1P9S7bvE0FEQn-29" edge="1">
          <mxGeometry x="0.1078" relative="1" as="geometry">
            <mxPoint x="60" y="310" as="targetPoint" />
            <mxPoint x="185" y="310" as="sourcePoint" />
            <mxPoint as="offset" />
          </mxGeometry>
        </mxCell>
        <mxCell id="j16Ln0b1P9S7bvE0FEQn-31" value="Computing Graph&lt;div&gt;Data Tensor&lt;/div&gt;" style="edgeLabel;html=1;align=center;verticalAlign=middle;resizable=0;points=[];" parent="j16Ln0b1P9S7bvE0FEQn-30" vertex="1" connectable="0">
          <mxGeometry x="0.1379" y="2" relative="1" as="geometry">
            <mxPoint x="3" y="17" as="offset" />
          </mxGeometry>
        </mxCell>
        <mxCell id="j16Ln0b1P9S7bvE0FEQn-23" value="" style="html=1;points=[];perimeter=orthogonalPerimeter;rounded=0;shadow=0;comic=0;labelBackgroundColor=none;strokeWidth=1;fontFamily=Verdana;fontSize=12;align=center;" parent="7baba1c4bc27f4b0-4" vertex="1">
          <mxGeometry x="185" y="290" width="10" height="40" as="geometry" />
        </mxCell>
        <mxCell id="j16Ln0b1P9S7bvE0FEQn-24" value="Token" style="html=1;verticalAlign=bottom;endArrow=open;dashed=1;endSize=8;labelBackgroundColor=none;fontFamily=Verdana;fontSize=12;exitX=0.005;exitY=1.001;exitDx=0;exitDy=0;exitPerimeter=0;entryX=1.017;entryY=0.022;entryDx=0;entryDy=0;entryPerimeter=0;" parent="7baba1c4bc27f4b0-4" target="j16Ln0b1P9S7bvE0FEQn-23" edge="1">
          <mxGeometry x="0.1078" relative="1" as="geometry">
            <mxPoint x="200" y="290" as="targetPoint" />
            <mxPoint x="324.6100000000001" y="290.03999999999996" as="sourcePoint" />
            <mxPoint as="offset" />
          </mxGeometry>
        </mxCell>
        <mxCell id="j16Ln0b1P9S7bvE0FEQn-25" value="Computing Graph&lt;div&gt;Data Tensor&lt;/div&gt;" style="edgeLabel;html=1;align=center;verticalAlign=middle;resizable=0;points=[];" parent="j16Ln0b1P9S7bvE0FEQn-24" vertex="1" connectable="0">
          <mxGeometry x="0.1379" y="2" relative="1" as="geometry">
            <mxPoint x="3" y="17" as="offset" />
          </mxGeometry>
        </mxCell>
        <mxCell id="7baba1c4bc27f4b0-9" value="" style="html=1;points=[];perimeter=orthogonalPerimeter;rounded=0;shadow=0;comic=0;labelBackgroundColor=none;strokeWidth=1;fontFamily=Verdana;fontSize=12;align=center;" parent="7baba1c4bc27f4b0-4" vertex="1">
          <mxGeometry x="-615" y="360" width="10" height="40" as="geometry" />
        </mxCell>
        <mxCell id="PnK5xe3oLc7WuXJ-SS2v-7" value="Token" style="html=1;verticalAlign=bottom;endArrow=open;dashed=1;endSize=8;labelBackgroundColor=none;fontFamily=Verdana;fontSize=12;exitX=0.052;exitY=0.79;exitDx=0;exitDy=0;exitPerimeter=0;entryX=0.814;entryY=0.468;entryDx=0;entryDy=0;entryPerimeter=0;" edge="1" parent="7baba1c4bc27f4b0-4" source="j16Ln0b1P9S7bvE0FEQn-29" target="7baba1c4bc27f4b0-9">
          <mxGeometry x="-0.7378" y="-2" relative="1" as="geometry">
            <mxPoint x="-600" y="380" as="targetPoint" />
            <mxPoint x="-150.02999999999997" y="380.0000000000001" as="sourcePoint" />
            <mxPoint as="offset" />
          </mxGeometry>
        </mxCell>
        <mxCell id="PnK5xe3oLc7WuXJ-SS2v-8" value="Data Tensor" style="edgeLabel;html=1;align=center;verticalAlign=middle;resizable=0;points=[];" vertex="1" connectable="0" parent="PnK5xe3oLc7WuXJ-SS2v-7">
          <mxGeometry x="0.1379" y="2" relative="1" as="geometry">
            <mxPoint x="69" y="-52" as="offset" />
          </mxGeometry>
        </mxCell>
        <mxCell id="PnK5xe3oLc7WuXJ-SS2v-9" value="Data Tensor" style="edgeLabel;html=1;align=center;verticalAlign=middle;resizable=0;points=[];" vertex="1" connectable="0" parent="PnK5xe3oLc7WuXJ-SS2v-7">
          <mxGeometry x="-0.6029" relative="1" as="geometry">
            <mxPoint x="44" y="10" as="offset" />
          </mxGeometry>
        </mxCell>
        <mxCell id="7baba1c4bc27f4b0-2" value="Clock" style="shape=umlLifeline;perimeter=lifelinePerimeter;whiteSpace=wrap;html=1;container=1;collapsible=0;recursiveResize=0;outlineConnect=0;rounded=1;shadow=0;comic=0;labelBackgroundColor=none;strokeWidth=1;fontFamily=Verdana;fontSize=12;align=center;" parent="1" vertex="1">
          <mxGeometry x="300" y="80" width="100" height="580" as="geometry" />
        </mxCell>
        <mxCell id="7baba1c4bc27f4b0-10" value="" style="html=1;points=[];perimeter=orthogonalPerimeter;rounded=0;shadow=0;comic=0;labelBackgroundColor=none;strokeWidth=1;fontFamily=Verdana;fontSize=12;align=center;" parent="7baba1c4bc27f4b0-2" vertex="1">
          <mxGeometry x="45" y="60" width="10" height="40" as="geometry" />
        </mxCell>
        <mxCell id="7baba1c4bc27f4b0-3" value="Router" style="shape=umlLifeline;perimeter=lifelinePerimeter;whiteSpace=wrap;html=1;container=1;collapsible=0;recursiveResize=0;outlineConnect=0;rounded=1;shadow=0;comic=0;labelBackgroundColor=none;strokeWidth=1;fontFamily=Verdana;fontSize=12;align=center;" parent="1" vertex="1">
          <mxGeometry x="440" y="80" width="100" height="580" as="geometry" />
        </mxCell>
        <mxCell id="7baba1c4bc27f4b0-13" value="" style="html=1;points=[];perimeter=orthogonalPerimeter;rounded=0;shadow=0;comic=0;labelBackgroundColor=none;strokeWidth=1;fontFamily=Verdana;fontSize=12;align=center;" parent="7baba1c4bc27f4b0-3" vertex="1">
          <mxGeometry x="45" y="80" width="10" height="100" as="geometry" />
        </mxCell>
        <mxCell id="j16Ln0b1P9S7bvE0FEQn-4" style="rounded=0;orthogonalLoop=1;jettySize=auto;html=1;entryX=-0.023;entryY=0.045;entryDx=0;entryDy=0;entryPerimeter=0;exitX=1.046;exitY=0.491;exitDx=0;exitDy=0;exitPerimeter=0;labelPosition=center;verticalLabelPosition=top;align=center;verticalAlign=bottom;" parent="7baba1c4bc27f4b0-3" source="7baba1c4bc27f4b0-10" edge="1">
          <mxGeometry relative="1" as="geometry">
            <mxPoint x="-85" y="69.88" as="sourcePoint" />
            <mxPoint x="44.879999999999995" y="80" as="targetPoint" />
          </mxGeometry>
        </mxCell>
        <mxCell id="j16Ln0b1P9S7bvE0FEQn-9" value="Token" style="edgeLabel;html=1;align=center;verticalAlign=middle;resizable=0;points=[];" parent="j16Ln0b1P9S7bvE0FEQn-4" vertex="1" connectable="0">
          <mxGeometry x="-0.2442" relative="1" as="geometry">
            <mxPoint x="16" y="-9" as="offset" />
          </mxGeometry>
        </mxCell>
        <mxCell id="7baba1c4bc27f4b0-6" value="Injection&lt;div&gt;Connectom(s)&lt;/div&gt;" style="shape=umlLifeline;perimeter=lifelinePerimeter;whiteSpace=wrap;html=1;container=1;collapsible=0;recursiveResize=0;outlineConnect=0;rounded=1;shadow=0;comic=0;labelBackgroundColor=none;strokeWidth=1;fontFamily=Verdana;fontSize=12;align=center;" parent="1" vertex="1">
          <mxGeometry x="900" y="80" width="100" height="580" as="geometry" />
        </mxCell>
        <mxCell id="j16Ln0b1P9S7bvE0FEQn-13" value="" style="html=1;points=[];perimeter=orthogonalPerimeter;rounded=0;shadow=0;comic=0;labelBackgroundColor=none;strokeWidth=1;fontFamily=Verdana;fontSize=12;align=center;" parent="7baba1c4bc27f4b0-6" vertex="1">
          <mxGeometry x="44.559999999999945" y="180" width="10" height="40" as="geometry" />
        </mxCell>
        <mxCell id="j16Ln0b1P9S7bvE0FEQn-14" value="Token" style="html=1;verticalAlign=bottom;endArrow=block;labelBackgroundColor=none;fontFamily=Verdana;fontSize=12;elbow=vertical;entryX=-0.043;entryY=0.23;entryDx=0;entryDy=0;entryPerimeter=0;exitX=1.044;exitY=0.053;exitDx=0;exitDy=0;exitPerimeter=0;" parent="7baba1c4bc27f4b0-6" edge="1">
          <mxGeometry relative="1" as="geometry">
            <mxPoint x="-85" y="179.53999999999996" as="sourcePoint" />
            <mxPoint x="44.13000000000011" y="179.99999999999994" as="targetPoint" />
          </mxGeometry>
        </mxCell>
        <mxCell id="j16Ln0b1P9S7bvE0FEQn-15" value="Sub-Route" style="edgeLabel;html=1;align=center;verticalAlign=middle;resizable=0;points=[];" parent="j16Ln0b1P9S7bvE0FEQn-14" vertex="1" connectable="0">
          <mxGeometry x="-0.1219" relative="1" as="geometry">
            <mxPoint x="8" y="10" as="offset" />
          </mxGeometry>
        </mxCell>
        <mxCell id="j16Ln0b1P9S7bvE0FEQn-21" value="" style="html=1;points=[];perimeter=orthogonalPerimeter;rounded=0;shadow=0;comic=0;labelBackgroundColor=none;strokeWidth=1;fontFamily=Verdana;fontSize=12;align=center;" parent="7baba1c4bc27f4b0-6" vertex="1">
          <mxGeometry x="44.56" y="270" width="10" height="40" as="geometry" />
        </mxCell>
        <mxCell id="7baba1c4bc27f4b0-7" value="Perceptron" style="shape=umlLifeline;perimeter=lifelinePerimeter;whiteSpace=wrap;html=1;container=1;collapsible=0;recursiveResize=0;outlineConnect=0;rounded=1;shadow=0;comic=0;labelBackgroundColor=none;strokeWidth=1;fontFamily=Verdana;fontSize=12;align=center;" parent="1" vertex="1">
          <mxGeometry x="1100" y="80" width="100" height="580" as="geometry" />
        </mxCell>
        <mxCell id="j16Ln0b1P9S7bvE0FEQn-16" value="" style="html=1;points=[];perimeter=orthogonalPerimeter;rounded=0;shadow=0;comic=0;labelBackgroundColor=none;strokeWidth=1;fontFamily=Verdana;fontSize=12;align=center;" parent="7baba1c4bc27f4b0-7" vertex="1">
          <mxGeometry x="45" y="200.92" width="10" height="69.08" as="geometry" />
        </mxCell>
        <mxCell id="j16Ln0b1P9S7bvE0FEQn-17" value="Token" style="html=1;verticalAlign=bottom;endArrow=block;labelBackgroundColor=none;fontFamily=Verdana;fontSize=12;elbow=vertical;entryX=-0.043;entryY=0.23;entryDx=0;entryDy=0;entryPerimeter=0;exitX=1.061;exitY=0.515;exitDx=0;exitDy=0;exitPerimeter=0;" parent="7baba1c4bc27f4b0-7" source="j16Ln0b1P9S7bvE0FEQn-13" edge="1">
          <mxGeometry relative="1" as="geometry">
            <mxPoint x="-84.55999999999995" y="200.45999999999998" as="sourcePoint" />
            <mxPoint x="44.570000000000164" y="200.91999999999996" as="targetPoint" />
          </mxGeometry>
        </mxCell>
        <mxCell id="j16Ln0b1P9S7bvE0FEQn-18" value="Sub-Route" style="edgeLabel;html=1;align=center;verticalAlign=middle;resizable=0;points=[];" parent="j16Ln0b1P9S7bvE0FEQn-17" vertex="1" connectable="0">
          <mxGeometry x="-0.1219" relative="1" as="geometry">
            <mxPoint x="8" y="10" as="offset" />
          </mxGeometry>
        </mxCell>
        <mxCell id="7baba1c4bc27f4b0-16" value="" style="html=1;points=[];perimeter=orthogonalPerimeter;rounded=0;shadow=0;comic=0;labelBackgroundColor=none;strokeWidth=1;fontFamily=Verdana;fontSize=12;align=center;" parent="1" vertex="1">
          <mxGeometry x="665" y="220" width="10" height="40" as="geometry" />
        </mxCell>
        <mxCell id="7baba1c4bc27f4b0-17" value="Token" style="html=1;verticalAlign=bottom;endArrow=block;labelBackgroundColor=none;fontFamily=Verdana;fontSize=12;elbow=vertical;exitX=1.017;exitY=0.592;exitDx=0;exitDy=0;exitPerimeter=0;" parent="1" edge="1" source="7baba1c4bc27f4b0-13">
          <mxGeometry relative="1" as="geometry">
            <mxPoint x="500" y="220" as="sourcePoint" />
            <mxPoint x="665" y="219.99999999999997" as="targetPoint" />
          </mxGeometry>
        </mxCell>
        <mxCell id="PnK5xe3oLc7WuXJ-SS2v-4" value="Route" style="edgeLabel;html=1;align=center;verticalAlign=middle;resizable=0;points=[];" vertex="1" connectable="0" parent="7baba1c4bc27f4b0-17">
          <mxGeometry x="-0.0906" relative="1" as="geometry">
            <mxPoint x="8" y="10" as="offset" />
          </mxGeometry>
        </mxCell>
        <mxCell id="7baba1c4bc27f4b0-40" value="Effector&lt;div&gt;Essemble&lt;/div&gt;" style="shape=note;whiteSpace=wrap;html=1;size=14;verticalAlign=top;align=center;spacingTop=-6;rounded=0;shadow=0;comic=0;labelBackgroundColor=none;strokeWidth=1;fontFamily=Verdana;fontSize=12" parent="1" vertex="1">
          <mxGeometry x="-40" y="30" width="100" height="35" as="geometry" />
        </mxCell>
        <mxCell id="7baba1c4bc27f4b0-42" value="Artificial&lt;div&gt;Oscillator&lt;/div&gt;" style="shape=note;whiteSpace=wrap;html=1;size=14;verticalAlign=top;align=center;spacingTop=-6;rounded=0;shadow=0;comic=0;labelBackgroundColor=none;strokeWidth=1;fontFamily=Verdana;fontSize=12" parent="1" vertex="1">
          <mxGeometry x="160" y="30" width="380" height="35" as="geometry" />
        </mxCell>
        <mxCell id="7baba1c4bc27f4b0-43" value="&lt;div&gt;Modular Multiscale&amp;nbsp;&lt;/div&gt;&lt;div&gt;Liquid State Machine&lt;/div&gt;&lt;div&gt;&lt;br&gt;&lt;/div&gt;" style="shape=note;whiteSpace=wrap;html=1;size=14;verticalAlign=top;align=center;spacingTop=-6;rounded=0;shadow=0;comic=0;labelBackgroundColor=none;strokeWidth=1;fontFamily=Verdana;fontSize=12" parent="1" vertex="1">
          <mxGeometry x="620" y="30" width="380" height="35" as="geometry" />
        </mxCell>
        <mxCell id="7baba1c4bc27f4b0-46" value="Perceptron&lt;div&gt;Essemble&lt;/div&gt;" style="shape=note;whiteSpace=wrap;html=1;size=14;verticalAlign=top;align=center;spacingTop=-6;rounded=0;shadow=0;comic=0;labelBackgroundColor=none;strokeWidth=1;fontFamily=Verdana;fontSize=12" parent="1" vertex="1">
          <mxGeometry x="1100" y="30" width="100" height="35" as="geometry" />
        </mxCell>
        <mxCell id="j16Ln0b1P9S7bvE0FEQn-20" value="Token" style="html=1;verticalAlign=bottom;endArrow=open;dashed=1;endSize=8;labelBackgroundColor=none;fontFamily=Verdana;fontSize=12;entryX=1.114;entryY=0.018;entryDx=0;entryDy=0;entryPerimeter=0;exitX=-0.033;exitY=0.995;exitDx=0;exitDy=0;exitPerimeter=0;" parent="1" source="j16Ln0b1P9S7bvE0FEQn-16" target="j16Ln0b1P9S7bvE0FEQn-21" edge="1">
          <mxGeometry x="0.1078" relative="1" as="geometry">
            <mxPoint x="655.5" y="320.92" as="targetPoint" />
            <mxPoint x="1155" y="320.92" as="sourcePoint" />
            <mxPoint as="offset" />
          </mxGeometry>
        </mxCell>
        <mxCell id="j16Ln0b1P9S7bvE0FEQn-22" value="Computing Graph, Input" style="edgeLabel;html=1;align=center;verticalAlign=middle;resizable=0;points=[];" parent="j16Ln0b1P9S7bvE0FEQn-20" vertex="1" connectable="0">
          <mxGeometry x="0.1379" y="2" relative="1" as="geometry">
            <mxPoint x="3" y="8" as="offset" />
          </mxGeometry>
        </mxCell>
        <mxCell id="PnK5xe3oLc7WuXJ-SS2v-1" value="FSG" style="shape=umlLifeline;perimeter=lifelinePerimeter;whiteSpace=wrap;html=1;container=1;collapsible=0;recursiveResize=0;outlineConnect=0;rounded=1;shadow=0;comic=0;labelBackgroundColor=none;strokeWidth=1;fontFamily=Verdana;fontSize=12;align=center;" vertex="1" parent="1">
          <mxGeometry x="160" y="80" width="100" height="580" as="geometry" />
        </mxCell>
        <mxCell id="PnK5xe3oLc7WuXJ-SS2v-2" value="" style="html=1;points=[];perimeter=orthogonalPerimeter;rounded=0;shadow=0;comic=0;labelBackgroundColor=none;strokeWidth=1;fontFamily=Verdana;fontSize=12;align=center;" vertex="1" parent="PnK5xe3oLc7WuXJ-SS2v-1">
          <mxGeometry x="45" y="310" width="10" height="40" as="geometry" />
        </mxCell>
      </root>
    </mxGraphModel>
  </diagram>
</mxfile>
